<svg xmlns="http://www.w3.org/2000/svg" shape-rendering="geometricPrecision" text-rendering="geometricPrecision" image-rendering="optimizeQuality" fill-rule="evenodd" clip-rule="evenodd" viewBox="0 0 490 511.752"><path fill-rule="nonzero" d="M40.867 0h408.266c11.248 0 21.467 4.596 28.87 11.999C485.405 19.401 490 29.621 490 40.869v52.689c0 .461-.034.915-.097 1.358.063.444.097.898.097 1.359a9.47 9.47 0 01-2.356 6.264L340.325 273.687a9.521 9.521 0 01-.86.878c-4.612 4.854-8.47 10.596-11.136 16.998-.174.418-.343.838-.506 1.262h-69.409c-5.25 0-9.508 4.258-9.508 9.508 0 5.25 4.258 9.508 9.508 9.508h65.963v37.197h-65.963c-5.25 0-9.508 4.257-9.508 9.508 0 5.25 4.258 9.507 9.508 9.507h65.963v37.197h-47.968c-5.25 0-9.508 4.258-9.508 9.508 0 5.25 4.258 9.508 9.508 9.508h47.968v57.999h-.039c-.024 7.863-1.851 14.525-4.875 19.403-1.892 3.052-4.256 5.484-6.979 7.192-3.029 1.901-6.418 2.901-10.038 2.891-3.777-.013-7.639-1.12-11.399-3.45l-.516-.342-121.012-85.913a9.468 9.468 0 01-3.984-7.724h-.027v-102.71c-.762-6.351-2.854-12.586-6.005-18.964-3.464-7.01-8.192-14.184-13.84-21.825L2.303 102.403a9.434 9.434 0 01-2.179-7.312A9.571 9.571 0 010 93.558V40.869c0-11.248 4.595-21.468 11.997-28.87C19.4 4.596 29.62 0 40.867 0zm408.266 19.016H40.867c-6 0-11.462 2.461-15.427 6.426-3.963 3.962-6.425 9.426-6.425 15.427v43.182h451.97V40.869c0-6.001-2.462-11.465-6.425-15.427-3.965-3.965-9.427-6.426-15.427-6.426z"/></svg>